<svg width="16" height="14" viewBox="0 0 16 14" fill="none" xmlns="http://www.w3.org/2000/svg">
<path d="M7.87573 0.675354C4.06845 0.675354 0.981323 3.46637 0.981323 6.90848C0.981323 10.3506 4.06845 13.1416 7.87573 13.1416C11.683 13.1416 14.7701 10.3506 14.7701 6.90848C14.7701 3.46637 11.683 0.675354 7.87573 0.675354Z" stroke="#292826" stroke-miterlimit="10"/>
<path d="M6.8266 5.95996H8.02563V9.88954" stroke="#292826" stroke-linecap="round" stroke-linejoin="round"/>
<path d="M6.37695 10.025H9.67428" stroke="#292826" stroke-miterlimit="10" stroke-linecap="round"/>
<path d="M7.8757 2.91107C7.68302 2.91107 7.49467 2.96273 7.33446 3.05951C7.17425 3.15629 7.04938 3.29384 6.97565 3.45478C6.90191 3.61572 6.88262 3.79282 6.92021 3.96367C6.9578 4.13452 7.05058 4.29146 7.18683 4.41464C7.32307 4.53781 7.49666 4.6217 7.68564 4.65568C7.87462 4.68967 8.0705 4.67223 8.24851 4.60556C8.42653 4.5389 8.57868 4.42601 8.68573 4.28117C8.79277 4.13633 8.84991 3.96604 8.84991 3.79184C8.84991 3.55825 8.74727 3.33422 8.56457 3.16904C8.38187 3.00387 8.13408 2.91107 7.8757 2.91107Z" fill="#292826"/>
</svg>
