<svg width="12" height="7" viewBox="0 0 12 7" fill="none" xmlns="http://www.w3.org/2000/svg">
<path d="M5.77881 7L5.15039 5.21582H2.69385L2.06543 7H0.953613L3.34424 0.548828H4.51318L6.89941 7H5.77881ZM4.87793 4.31055L4.26709 2.55273C4.24365 2.47656 4.20996 2.36963 4.16602 2.23193C4.12207 2.09131 4.07812 1.94922 4.03418 1.80566C3.99023 1.65918 3.95361 1.53613 3.92432 1.43652C3.89502 1.55664 3.8584 1.69141 3.81445 1.84082C3.77344 1.9873 3.73242 2.125 3.69141 2.25391C3.65332 2.38281 3.62402 2.48242 3.60352 2.55273L2.98828 4.31055H4.87793ZM8.6792 7H7.64209V0.162109H8.6792V7ZM11.1929 7H10.1558V0.162109H11.1929V7Z" fill="white"/>
</svg>
