<svg width="14" height="8" viewBox="0 0 14 8" fill="none" xmlns="http://www.w3.org/2000/svg">
<path d="M6.28379 8L5.52133 5.83525H2.5408L1.77834 8H0.429371L3.32992 0.172778H4.74821L7.64342 8H6.28379ZM5.19075 4.73688L4.44962 2.60412C4.42118 2.5117 4.3803 2.38196 4.32699 2.21489C4.27367 2.04427 4.22035 1.87188 4.16703 1.6977C4.11371 1.51997 4.06928 1.37068 4.03373 1.24982C3.99819 1.39556 3.95375 1.55907 3.90043 1.74036C3.85067 1.91809 3.80091 2.08515 3.75114 2.24155C3.70493 2.39796 3.66939 2.51881 3.6445 2.60412L2.89804 4.73688H5.19075ZM10.9385 0.20477C11.9445 0.20477 12.6785 0.410936 13.1406 0.82327C13.6027 1.2356 13.8338 1.81322 13.8338 2.55614C13.8338 2.89382 13.7804 3.21551 13.6738 3.52121C13.5707 3.82335 13.4001 4.09172 13.1619 4.32632C12.9238 4.55737 12.6092 4.74043 12.2182 4.87551C11.8307 5.01058 11.3526 5.07812 10.7839 5.07812H9.95214V8H8.67248V0.20477H10.9385ZM10.8532 1.26582H9.95214V4.01174H10.6506C11.0523 4.01174 11.3935 3.96553 11.6743 3.87311C11.9552 3.77714 12.1684 3.62607 12.3142 3.4199C12.4599 3.21374 12.5328 2.94181 12.5328 2.60412C12.5328 2.15269 12.3959 1.81678 12.1222 1.59639C11.8521 1.37601 11.4291 1.26582 10.8532 1.26582Z" fill="white"/>
</svg>
