<svg width="20" height="22" viewBox="0 0 20 22" fill="none" xmlns="http://www.w3.org/2000/svg">
<path d="M18.0735 2.23119C18.2421 2.21376 18.4123 2.24343 18.565 2.3169C18.7178 2.39037 18.8472 2.50476 18.9388 2.64735C19.8473 4.01319 19.6236 6.04819 18.5108 7.2371C18.5228 7.35088 18.5135 7.46592 18.4833 7.57627C18.3006 8.24404 18.0708 8.89804 17.7958 9.53335C17.2907 10.6911 16.5784 11.8617 15.5747 12.8664C13.6955 14.7455 11.2278 15.6081 9.30101 16.0105C8.84865 16.105 8.3927 16.1815 7.93426 16.2397L7.45759 16.2947L7.03043 16.3323C6.89659 16.342 6.77254 16.3503 6.65826 16.357L6.56568 17.1179L6.50701 17.6614L6.48226 17.9273L6.37501 19.25C6.33193 19.745 5.96434 20.1667 5.45834 20.1667C5.21523 20.1667 4.98207 20.0701 4.81016 19.8982C4.63825 19.7263 4.54168 19.4931 4.54168 19.25C4.54168 19.107 4.54993 18.9292 4.56276 18.7275L4.59668 18.2994L4.64068 17.8365L4.71859 17.1307L4.74426 16.9034C4.93218 15.3157 5.15309 13.7619 5.64901 12.2375C6.22193 10.4775 7.25318 8.22344 9.09201 6.38369C10.5348 4.94177 12.2389 3.99119 13.7734 3.36785L14.1878 3.20652L14.5911 3.05985C14.6571 3.03663 14.7228 3.01433 14.7882 2.99294L15.1732 2.86827L15.5417 2.75827L16.0623 2.61619L16.5381 2.50069L16.8268 2.43744L17.3273 2.34119L17.8563 2.25777L18.0735 2.23119ZM4.08334 0.916687C4.25483 0.916687 4.42289 0.964792 4.5684 1.05554C4.71391 1.14628 4.83105 1.27602 4.90651 1.43002L4.95051 1.53727L5.06968 1.88377C5.19545 2.25244 5.3981 2.59018 5.66422 2.87463C5.93034 3.15909 6.25386 3.38376 6.61334 3.53377L6.78293 3.59794L7.12943 3.71619C7.30097 3.77483 7.45127 3.88302 7.56133 4.02708C7.67138 4.17114 7.73625 4.3446 7.74773 4.52553C7.75921 4.70645 7.71679 4.88672 7.62582 5.04353C7.53485 5.20035 7.39943 5.32667 7.23668 5.40652L7.12943 5.45052L6.78293 5.56969C6.41426 5.69546 6.07652 5.89811 5.79206 6.16423C5.50761 6.43035 5.28294 6.75387 5.13293 7.11335L5.06876 7.28294L4.95051 7.62944C4.89187 7.80098 4.78368 7.95128 4.63962 8.06134C4.49556 8.17139 4.3221 8.23626 4.14117 8.24774C3.96025 8.25922 3.77998 8.2168 3.62317 8.12583C3.46635 8.03486 3.34003 7.89944 3.26018 7.73669L3.21618 7.62944L3.09701 7.28294C2.97124 6.91427 2.76859 6.57653 2.50247 6.29207C2.23635 6.00762 1.91283 5.78295 1.55334 5.63294L1.38376 5.56877L1.03726 5.45052C0.865719 5.39188 0.715417 5.28369 0.60536 5.13963C0.495303 4.99557 0.430434 4.82211 0.418954 4.64118C0.407475 4.46026 0.449901 4.27999 0.540867 4.12318C0.631834 3.96636 0.767256 3.84004 0.930011 3.76019L1.03726 3.71619L1.38376 3.59702C1.75243 3.47125 2.09017 3.2686 2.37462 3.00248C2.65908 2.73636 2.88375 2.41284 3.03376 2.05335L3.09793 1.88377L3.21618 1.53727C3.27794 1.35631 3.39474 1.19919 3.55024 1.08791C3.70573 0.976632 3.89213 0.916763 4.08334 0.916687Z" fill="#71727A"/>
</svg>
