<svg width="28" height="23" viewBox="0 0 28 23" fill="none" xmlns="http://www.w3.org/2000/svg">
<path d="M13.846 9.31484C13.846 9.31509 13.8462 9.31529 13.8465 9.31529C14.9475 9.31684 16.003 9.71525 16.7816 10.4232C17.5603 11.1312 17.9984 12.0912 18 13.0925V13.0961C17.9999 13.7173 17.8314 14.329 17.5092 14.8768C17.1871 15.4246 16.7213 15.8917 16.1532 16.2368C15.5851 16.5818 14.9322 16.7941 14.2522 16.8549C13.5723 16.9156 12.8864 16.823 12.2553 16.5851C11.6242 16.3472 11.0673 15.9714 10.6341 15.4911C10.2008 15.0108 9.90457 14.4407 9.77153 13.8314C9.63848 13.222 9.67277 12.5923 9.87136 11.9979C10.0699 11.4035 10.4267 10.8628 10.91 10.4237C11.283 10.0728 11.7299 9.79377 12.224 9.60319C12.7181 9.4126 13.2493 9.31438 13.786 9.31438H13.849H13.8465C13.8462 9.31438 13.846 9.31458 13.846 9.31484ZM24 3.85954H24.055C25.057 3.85954 25.963 4.23599 26.609 4.84249L26.61 4.8434C26.9527 5.14475 27.2251 5.50576 27.411 5.90491C27.5969 6.30406 27.6924 6.73317 27.692 7.16664V7.21937V7.21665V18.9683C27.6917 19.8586 27.3027 20.7124 26.6103 21.3419C25.918 21.9714 24.9791 22.3252 24 22.3254H3.692C2.7129 22.3252 1.77398 21.9714 1.08165 21.3419C0.389328 20.7124 0.000265087 19.8586 0 18.9683L0 7.16754C0 6.25643 0.414 5.43262 1.081 4.84522L1.082 4.84431C1.41341 4.53273 1.81044 4.28503 2.24941 4.116C2.68838 3.94697 3.16029 3.86006 3.637 3.86045H3.695H3.692H4.9925C6.16006 3.86045 7.21224 3.15596 7.657 2.07642C7.869 1.61541 8.214 1.23806 8.65 0.973454L8.66 0.967998C9.09017 0.673691 9.61174 0.510724 10.15 0.502441H17.537C18.0788 0.510939 18.6036 0.675538 19.036 0.972545L19.03 0.967998C19.475 1.23806 19.821 1.61541 20.026 2.06006L20.033 2.07642C20.4777 3.1559 21.53 3.86024 22.6975 3.85991L24 3.85954ZM13.8459 18.9682C13.846 18.9683 13.8461 18.9683 13.8462 18.9683L13.937 18.9692C14.7717 18.9704 15.598 18.8183 16.3664 18.522C17.1348 18.2258 17.8296 17.7915 18.409 17.2452L18.411 17.2434C19.0122 16.7164 19.4901 16.0844 19.8161 15.3854C20.1421 14.6863 20.3094 13.9345 20.308 13.1752L20.307 13.0879V13.0925L20.308 13.0088C20.3093 12.2499 20.142 11.4985 19.8162 10.7998C19.4904 10.1011 19.0128 9.46933 18.412 8.94248L18.41 8.94066C17.243 7.87497 15.629 7.21574 13.845 7.21574C12.061 7.21574 10.447 7.87497 9.28 8.93975C8.66718 9.47695 8.18258 10.1231 7.85638 10.8381C7.53019 11.553 7.36939 12.3213 7.384 13.0952V13.0907L7.383 13.1761C7.383 14.7719 8.109 16.2132 9.277 17.2416L9.279 17.2434C9.85856 17.7901 10.5536 18.2246 11.3224 18.521C12.0912 18.8175 12.9179 18.9696 13.753 18.9683L13.85 18.9674H13.8462C13.8458 18.9674 13.8456 18.9679 13.8459 18.9682Z" fill="#006BE8"/>
</svg>
