<svg width="11" height="10" viewBox="0 0 11 10" fill="none" xmlns="http://www.w3.org/2000/svg">
<path fill-rule="evenodd" clip-rule="evenodd" d="M7.52795 2.08893L6.03386 2.27595C5.80561 2.30453 5.61911 2.39986 5.48594 2.53162L1.99981 5.58628C1.64617 5.89615 1.64615 6.39854 1.99981 6.70843L3.28046 7.83058C3.63412 8.14046 4.20747 8.14045 4.56111 7.83058L8.04724 4.77591C8.19761 4.65922 8.30641 4.49581 8.33901 4.29581L8.55246 2.98663C8.63786 2.46298 8.12557 2.0141 7.52795 2.08893ZM6.48208 3.90306C6.65889 4.05798 6.94558 4.058 7.12241 3.90306C7.29923 3.74812 7.29922 3.49691 7.12241 3.34199C6.9456 3.18706 6.65891 3.18705 6.48208 3.34199C6.30526 3.49692 6.30527 3.74813 6.48208 3.90306Z" fill="white"/>
</svg>
