<svg width="25" height="24" viewBox="0 0 25 24" fill="none" xmlns="http://www.w3.org/2000/svg">
<rect x="0.5" width="24" height="24" rx="12" fill="#006FFD"/>
<mask id="mask0_1323_227" style="mask-type:alpha" maskUnits="userSpaceOnUse" x="8" y="7" width="9" height="10">
<path d="M10.8922 15.587L15.059 11.4202L13.0799 9.44106L8.91309 13.6078C8.85573 13.6653 8.81498 13.7371 8.79517 13.8159L8.33334 16.1667L10.6837 15.7049C10.7626 15.6852 10.8348 15.6443 10.8922 15.587ZM16.4041 10.0751C16.5722 9.9069 16.6667 9.67885 16.6667 9.44106C16.6667 9.20327 16.5722 8.97522 16.4041 8.80706L15.693 8.09593C15.5248 7.92782 15.2968 7.83337 15.059 7.83337C14.8212 7.83337 14.5932 7.92782 14.425 8.09593L13.7139 8.80706L15.693 10.7862L16.4041 10.0751Z" fill="#006FFD"/>
</mask>
<g mask="url(#mask0_1323_227)">
<rect x="7.5" y="7" width="10" height="10" fill="white"/>
</g>
</svg>
