<svg width="57" height="58" viewBox="0 0 57 58" fill="none" xmlns="http://www.w3.org/2000/svg">
<g clip-path="url(#clip0_922_129)">
<mask id="mask0_922_129" style="mask-type:luminance" maskUnits="userSpaceOnUse" x="0" y="0" width="57" height="58">
<path d="M0 0H57V58H0V0Z" fill="white"/>
<path d="M22.1774 16.3293C22.0811 16.2174 22.0079 16.087 21.9619 15.9458C21.9159 15.8046 21.8981 15.6555 21.9096 15.5072C21.9211 15.359 21.9616 15.2145 22.0288 15.0824C22.0959 14.9503 22.1884 14.8332 22.3006 14.738C22.4129 14.6428 22.5428 14.5714 22.6826 14.528C22.8224 14.4846 22.9693 14.4701 23.1147 14.4854C23.2601 14.5006 23.401 14.5453 23.5292 14.6168C23.6574 14.6882 23.7702 14.7851 23.8611 14.9016L34.8226 28.2862C35.0005 28.5143 35.0836 28.8041 35.0543 29.0938C35.025 29.3834 34.8855 29.6499 34.6657 29.8364C34.4458 30.0228 34.1631 30.1143 33.8778 30.0914C33.5925 30.0685 33.3273 29.9331 33.1389 29.7139L22.1774 16.3293Z" fill="black"/>
<path d="M23.8611 43.0984C23.6727 43.3176 23.4075 43.4531 23.1222 43.4759C22.8369 43.4988 22.5542 43.4073 22.3343 43.2209C22.1145 43.0345 21.975 42.768 21.9457 42.4783C21.9164 42.1887 21.9995 41.8988 22.1774 41.6707L33.1389 28.2861C33.2298 28.1696 33.3426 28.0728 33.4708 28.0013C33.599 27.9298 33.7399 27.8851 33.8853 27.8699C34.0307 27.8546 34.1776 27.8691 34.3174 27.9125C34.4572 27.9559 34.5871 28.0273 34.6994 28.1225C34.8116 28.2177 34.9041 28.3349 34.9712 28.467C35.0384 28.5991 35.0789 28.7435 35.0904 28.8918C35.1019 29.04 35.0841 29.1891 35.0381 29.3303C34.9921 29.4715 34.9189 29.6019 34.8226 29.7138L23.8611 43.0984Z" fill="black"/>
</mask>
<g mask="url(#mask0_922_129)">
<path d="M28.5 58C44.2401 58 57 45.0163 57 29C57 12.9837 44.2401 0 28.5 0C12.7599 0 0 12.9837 0 29C0 45.0163 12.7599 58 28.5 58Z" fill="#56ADF0"/>
</g>
</g>
<defs>
<clipPath id="clip0_922_129">
<rect width="57" height="58" fill="white"/>
</clipPath>
</defs>
</svg>
