<svg width="23" height="22" viewBox="0 0 23 22" fill="none" xmlns="http://www.w3.org/2000/svg">
<path d="M17.7857 4.51788V16.1072C17.7855 16.2053 17.8221 16.3 17.8882 16.3726C17.9544 16.4451 18.0453 16.4903 18.1431 16.4991C18.2408 16.508 18.3384 16.48 18.4165 16.4205C18.4946 16.361 18.5476 16.2745 18.5651 16.1779L18.5714 16.1072V5.50003H19.5536C19.8986 5.50004 20.2311 5.6298 20.4849 5.86356C20.7388 6.09732 20.8954 6.41798 20.9238 6.76188L20.9286 6.87503V16.3036C20.9286 16.9558 20.679 17.5834 20.2311 18.0575C19.7831 18.5316 19.1708 18.8163 18.5196 18.8532L18.375 18.8572H4.62498C3.97273 18.8572 3.34519 18.6077 2.87109 18.1597C2.39698 17.7118 2.11227 17.0994 2.07534 16.4482L2.07141 16.3036V4.51788C2.07142 4.17281 2.20119 3.84035 2.43495 3.5865C2.6687 3.33266 2.98936 3.17599 3.33327 3.1476L3.44641 3.14288H16.4107C16.7558 3.1429 17.0882 3.27266 17.3421 3.50642C17.5959 3.74017 17.7526 4.06083 17.781 4.40474L17.7857 4.51788ZM8.15834 10.2175H6.19641C5.85133 10.2175 5.51888 10.3472 5.26503 10.581C5.01119 10.8147 4.85452 11.1354 4.82613 11.4793L4.82141 11.5925V13.5536C4.82142 13.8987 4.95119 14.2311 5.18495 14.485C5.4187 14.7388 5.73936 14.8955 6.08327 14.9239L6.19641 14.9286H8.15834C8.50354 14.9286 8.8361 14.7987 9.08997 14.5648C9.34383 14.3309 9.50042 14.01 9.52863 13.666L9.53255 13.5536V11.5925C9.53274 11.2472 9.40306 10.9146 9.16929 10.6606C8.93551 10.4066 8.61474 10.2498 8.2707 10.2214L8.15834 10.2175ZM14.4464 13.75H11.6964L11.6163 13.7555C11.4752 13.7749 11.346 13.8447 11.2524 13.9521C11.1589 14.0594 11.1073 14.1969 11.1073 14.3393C11.1073 14.4817 11.1589 14.6192 11.2524 14.7266C11.346 14.8339 11.4752 14.9037 11.6163 14.9231L11.6964 14.9286H14.4464L14.5266 14.9231C14.6676 14.9037 14.7968 14.8339 14.8904 14.7266C14.984 14.6192 15.0355 14.4817 15.0355 14.3393C15.0355 14.1969 14.984 14.0594 14.8904 13.9521C14.7968 13.8447 14.6676 13.7749 14.5266 13.7555L14.4464 13.75ZM6.19641 11.396H8.15834C8.20249 11.3961 8.24534 11.411 8.27998 11.4383C8.31462 11.4657 8.33903 11.5039 8.34927 11.5469L8.35477 11.5925V13.5536C8.35469 13.5979 8.33968 13.6408 8.31216 13.6754C8.28463 13.7101 8.24621 13.7344 8.20312 13.7445L8.15834 13.75H6.19641C6.15216 13.75 6.10922 13.7349 6.07457 13.7074C6.03992 13.6799 6.01557 13.6415 6.00548 13.5984L5.99998 13.5536V11.5925C5.99988 11.5481 6.01481 11.505 6.04235 11.4701C6.06989 11.4353 6.10841 11.4109 6.15162 11.4007L6.19641 11.396ZM14.4464 10.2175H11.6964L11.6163 10.2222C11.4746 10.2409 11.3446 10.3105 11.2505 10.418C11.1563 10.5255 11.1044 10.6635 11.1044 10.8063C11.1044 10.9492 11.1563 11.0872 11.2505 11.1947C11.3446 11.3022 11.4746 11.3718 11.6163 11.3905L11.6964 11.396H14.4464L14.5266 11.3905C14.6682 11.3718 14.7982 11.3022 14.8924 11.1947C14.9865 11.0872 15.0384 10.9492 15.0384 10.8063C15.0384 10.6635 14.9865 10.5255 14.8924 10.418C14.7982 10.3105 14.6682 10.2409 14.5266 10.2222L14.4464 10.2175ZM14.4464 6.67624H5.4107L5.33055 6.68174C5.18951 6.70115 5.06026 6.77096 4.9667 6.87828C4.87314 6.98559 4.82159 7.12315 4.82159 7.26553C4.82159 7.4079 4.87314 7.54546 4.9667 7.65278C5.06026 7.76009 5.18951 7.82991 5.33055 7.84931L5.4107 7.85481H14.4464L14.5266 7.84931C14.6676 7.82991 14.7968 7.76009 14.8904 7.65278C14.984 7.54546 15.0355 7.4079 15.0355 7.26553C15.0355 7.12315 14.984 6.98559 14.8904 6.87828C14.7968 6.77096 14.6676 6.70115 14.5266 6.68174L14.4464 6.67624Z" fill="#71727A"/>
</svg>
