<svg width="19" height="17" viewBox="0 0 19 17" fill="none" xmlns="http://www.w3.org/2000/svg">
<path d="M13.2325 4.94551L13.2325 4.94543C13.3126 4.0132 12.9776 3.14864 12.2776 2.49793C11.5809 1.85041 10.589 1.47705 9.46304 1.47705C8.32854 1.47705 7.33346 1.84909 6.64166 2.49108L13.2325 4.94551ZM13.2325 4.94551C13.0689 6.85402 11.3728 8.41574 9.46304 8.41574C7.55287 8.41574 5.8543 6.85336 5.69322 4.94566L13.2325 4.94551ZM5.69321 4.94547C5.61388 4.00029 5.94869 3.13432 6.64163 2.49111L5.69321 4.94547Z" stroke="#292826"/>
<path d="M16.7137 16.3544V16.3544C16.84 16.3558 16.9633 16.3328 17.0739 16.289C17.1844 16.2452 17.2762 16.1831 17.3453 16.1117L17.3458 16.1111C17.496 15.9566 17.5568 15.7503 17.5107 15.5307L17.5106 15.5304C17.1972 14.0335 16.2174 12.7499 14.6153 11.8303L16.7137 16.3544ZM16.7137 16.3544H16.7082M16.7137 16.3544H16.7082M16.7082 16.3544H2.21787V16.3544M16.7082 16.3544L2.21787 16.3544M2.21787 16.3544L2.21227 16.3544M2.21787 16.3544L2.21227 16.3544M2.21227 16.3544C2.08596 16.3558 1.96267 16.3329 1.85212 16.2891C1.74157 16.2453 1.64982 16.1832 1.5806 16.1119L1.58025 16.1115M2.21227 16.3544L1.58025 16.1115M1.58025 16.1115C1.43012 15.957 1.36928 15.7507 1.41541 15.531L1.41547 15.5307M1.58025 16.1115L1.41547 15.5307M1.41547 15.5307C1.7289 14.0339 2.70871 12.7502 4.31091 11.8302L1.41547 15.5307ZM4.31106 11.8302C5.74005 11.0104 7.57002 10.5498 9.46304 10.5498C11.356 10.5498 13.186 11.0107 14.6151 11.8302L4.31106 11.8302Z" stroke="#292826"/>
</svg>
