<svg width="15" height="8" viewBox="0 0 15 8" fill="none" xmlns="http://www.w3.org/2000/svg">
<path d="M7.29188 4.02774C7.29188 4.90572 7.12837 5.63975 6.80135 6.22981C6.47432 6.81632 5.99979 7.25887 5.37773 7.55745C4.75568 7.85248 4.00566 8 3.12767 8H0.962922V0.20477H3.36227C4.16917 0.20477 4.86587 0.350508 5.45238 0.641985C6.03889 0.929907 6.4921 1.35824 6.81201 1.92697C7.13192 2.49215 7.29188 3.19241 7.29188 4.02774ZM5.95891 4.06506C5.95891 3.42523 5.8576 2.89915 5.65499 2.48682C5.45593 2.07449 5.1609 1.76879 4.7699 1.56973C4.38244 1.36712 3.90435 1.26582 3.33562 1.26582H2.24258V6.92829H3.149C4.09097 6.92829 4.79478 6.68835 5.26043 6.20848C5.72608 5.72861 5.95891 5.01414 5.95891 4.06506ZM8.97143 0.20477H11.2908C12.2968 0.20477 13.0557 0.350508 13.5675 0.641985C14.0794 0.933462 14.3353 1.43644 14.3353 2.15091C14.3353 2.4495 14.282 2.71965 14.1754 2.96136C14.0723 3.19952 13.9212 3.3968 13.7221 3.5532C13.5231 3.70605 13.2778 3.80913 12.9863 3.86245V3.91577C13.2885 3.96909 13.5569 4.06328 13.7915 4.19836C14.0296 4.33343 14.2162 4.52716 14.3513 4.77954C14.4899 5.03191 14.5593 5.35893 14.5593 5.7606C14.5593 6.23692 14.4455 6.64214 14.218 6.97628C13.9941 7.31041 13.6724 7.56456 13.2529 7.73874C12.8371 7.91291 12.343 8 11.7707 8H8.97143V0.20477ZM10.2511 3.4199H11.4774C12.0568 3.4199 12.4585 3.32571 12.6824 3.13731C12.9064 2.94892 13.0183 2.67344 13.0183 2.31087C13.0183 1.94119 12.885 1.6746 12.6184 1.51108C12.3554 1.34757 11.936 1.26582 11.3601 1.26582H10.2511V3.4199ZM10.2511 4.45429V6.92829H11.6001C12.1972 6.92829 12.6167 6.81276 12.8584 6.58172C13.1001 6.35067 13.2209 6.03786 13.2209 5.6433C13.2209 5.40159 13.1659 5.19187 13.0557 5.01414C12.949 4.83641 12.7731 4.69956 12.5278 4.60358C12.2825 4.50405 11.952 4.45429 11.5361 4.45429H10.2511Z" fill="white"/>
</svg>
