<svg width="16" height="16" viewBox="0 0 16 16" fill="none" xmlns="http://www.w3.org/2000/svg">
<path d="M8.00005 0.800049C8.17907 0.800049 8.35076 0.871165 8.47735 0.997752C8.60393 1.12434 8.67505 1.29603 8.67505 1.47505V14.525C8.67505 14.7041 8.60393 14.8758 8.47735 15.0023C8.35076 15.1289 8.17907 15.2 8.00005 15.2C7.82103 15.2 7.64934 15.1289 7.52275 15.0023C7.39616 14.8758 7.32505 14.7041 7.32505 14.525V1.47505C7.32505 1.29603 7.39616 1.12434 7.52275 0.997752C7.64934 0.871165 7.82103 0.800049 8.00005 0.800049ZM11.375 3.50005C11.5541 3.50005 11.7258 3.57116 11.8523 3.69775C11.9789 3.82434 12.05 3.99603 12.05 4.17505V11.825C12.05 12.0041 11.9789 12.1758 11.8523 12.3023C11.7258 12.4289 11.5541 12.5 11.375 12.5C11.196 12.5 11.0243 12.4289 10.8978 12.3023C10.7712 12.1758 10.7 12.0041 10.7 11.825V4.17505C10.7 3.99603 10.7712 3.82434 10.8978 3.69775C11.0243 3.57116 11.196 3.50005 11.375 3.50005ZM5.30005 4.17505C5.30005 3.99603 5.22893 3.82434 5.10235 3.69775C4.97576 3.57116 4.80407 3.50005 4.62505 3.50005C4.44603 3.50005 4.27434 3.57116 4.14775 3.69775C4.02116 3.82434 3.95005 3.99603 3.95005 4.17505V11.825C3.95005 12.0041 4.02116 12.1758 4.14775 12.3023C4.27434 12.4289 4.44603 12.5 4.62505 12.5C4.80407 12.5 4.97576 12.4289 5.10235 12.3023C5.22893 12.1758 5.30005 12.0041 5.30005 11.825V4.17505ZM14.525 6.20005C14.7041 6.20005 14.8758 6.27116 15.0023 6.39775C15.1289 6.52434 15.2 6.69603 15.2 6.87505V9.12505C15.2 9.30407 15.1289 9.47576 15.0023 9.60235C14.8758 9.72893 14.7041 9.80005 14.525 9.80005C14.346 9.80005 14.1743 9.72893 14.0478 9.60235C13.9212 9.47576 13.85 9.30407 13.85 9.12505V6.87505C13.85 6.69603 13.9212 6.52434 14.0478 6.39775C14.1743 6.27116 14.346 6.20005 14.525 6.20005ZM2.15005 6.87505C2.15005 6.69603 2.07893 6.52434 1.95235 6.39775C1.82576 6.27116 1.65407 6.20005 1.47505 6.20005C1.29603 6.20005 1.12434 6.27116 0.997752 6.39775C0.871165 6.52434 0.800049 6.69603 0.800049 6.87505V9.12505C0.800049 9.30407 0.871165 9.47576 0.997752 9.60235C1.12434 9.72893 1.29603 9.80005 1.47505 9.80005C1.65407 9.80005 1.82576 9.72893 1.95235 9.60235C2.07893 9.47576 2.15005 9.30407 2.15005 9.12505V6.87505Z" fill="#2E73FF"/>
</svg>
