<svg width="16" height="13" viewBox="0 0 16 13" fill="none" xmlns="http://www.w3.org/2000/svg">
<path d="M7.25404 1.03988C7.86546 0.876384 8.49154 1.23038 8.65286 1.83076C8.81418 2.43113 8.44943 3.04951 7.83801 3.21301C7.22659 3.37651 1.10938 3.74401 1.10938 3.74401C1.10938 3.74401 6.64299 1.20301 7.25404 1.03988ZM7.27585 11.7866C7.88689 11.9498 8.51335 11.5958 8.67467 10.9954C8.83599 10.395 8.47086 9.77663 7.85944 9.61313C7.2484 9.44963 1.13118 8.99551 1.13118 8.99551C1.13118 8.99551 6.6648 11.6231 7.27585 11.7866Z" stroke="#2E73FF" stroke-width="1.66667" stroke-linejoin="round"/>
<path d="M11.372 3.37061C11.5643 3.11492 11.8189 2.9125 12.1117 2.78256C12.4045 2.65262 12.7258 2.59948 13.045 2.62818C13.3642 2.65688 13.6707 2.76648 13.9355 2.94656C14.2002 3.12663 14.4144 3.37122 14.5578 3.65708C14.7011 3.94295 14.7688 4.2606 14.7544 4.57988C14.7399 4.89917 14.6439 5.20948 14.4755 5.48135C14.307 5.75323 14.0716 5.97763 13.7917 6.13327C13.5118 6.28891 13.1966 6.37061 12.8761 6.37061H4.60352" stroke="#2E73FF" stroke-width="1.66667" stroke-linecap="round"/>
</svg>
