<svg width="13" height="16" viewBox="0 0 13 16" fill="none" xmlns="http://www.w3.org/2000/svg">
<path d="M8.18417 12.5C8.49753 12.5 8.76401 12.3908 8.98361 12.1723C9.20321 11.9538 9.31276 11.688 9.31225 11.375C9.31175 11.062 9.2022 10.7965 8.98361 10.5785C8.76501 10.3605 8.49853 10.251 8.18417 10.25C7.86981 10.249 7.60359 10.3585 7.38549 10.5785C7.16739 10.7985 7.05759 11.064 7.05609 11.375C7.05459 11.686 7.16439 11.9518 7.38549 12.1723C7.60659 12.3928 7.87282 12.502 8.18417 12.5ZM3.85986 11.9375C4.01027 12.0875 4.18575 12.1625 4.3863 12.1625C4.58684 12.1625 4.76232 12.0875 4.91273 11.9375L8.74821 8.11251C8.89862 7.96251 8.97383 7.78751 8.97383 7.58751C8.97383 7.38751 8.89862 7.21251 8.74821 7.06251C8.5978 6.91251 8.41932 6.83751 8.21275 6.83751C8.00619 6.83751 7.82745 6.91251 7.67654 7.06251L3.85986 10.8688C3.70945 11.0188 3.63424 11.197 3.63424 11.4035C3.63424 11.61 3.70945 11.788 3.85986 11.9375ZM4.4239 8.75001C4.73726 8.75001 5.00373 8.64076 5.22333 8.42226C5.44293 8.20376 5.55248 7.93801 5.55198 7.62501C5.55148 7.31201 5.44193 7.04651 5.22333 6.82851C5.00474 6.61051 4.73826 6.50101 4.4239 6.50001C4.10954 6.49901 3.84331 6.60851 3.62522 6.82851C3.40712 7.04851 3.29732 7.31401 3.29582 7.62501C3.29431 7.93601 3.40411 8.20176 3.62522 8.42226C3.84632 8.64276 4.11255 8.75201 4.4239 8.75001ZM6.30404 15.5C4.58684 15.5 3.15493 14.9125 2.0083 13.7375C0.861666 12.5625 0.288099 11.1 0.287598 9.35001C0.287598 8.57501 0.463077 7.80001 0.814036 7.02501C1.16499 6.25001 1.60369 5.50626 2.13013 4.79376C2.65657 4.08126 3.22688 3.41251 3.84106 2.78751C4.45523 2.16251 5.02554 1.61876 5.55198 1.15626C5.65226 1.05626 5.76832 0.984508 5.90018 0.941008C6.03204 0.897508 6.16666 0.875508 6.30404 0.875008C6.44141 0.874508 6.57628 0.896508 6.70864 0.941008C6.841 0.985508 6.95682 1.05726 7.05609 1.15626C7.58253 1.61876 8.15284 2.16251 8.76701 2.78751C9.38119 3.41251 9.9515 4.08126 10.4779 4.79376C11.0044 5.50626 11.4431 6.25001 11.794 7.02501C12.145 7.80001 12.3205 8.57501 12.3205 9.35001C12.3205 11.1 11.7472 12.5625 10.6005 13.7375C9.45389 14.9125 8.02173 15.5 6.30404 15.5ZM6.30404 14C7.6076 14 8.68554 13.5593 9.53787 12.6778C10.3902 11.7963 10.8164 10.687 10.8164 9.35001C10.8164 8.43751 10.4371 7.40626 9.6785 6.25626C8.91993 5.10626 7.79511 3.85001 6.30404 2.48751C4.81246 3.85001 3.68764 5.10626 2.92957 6.25626C2.17149 7.40626 1.79221 8.43751 1.79171 9.35001C1.79171 10.6875 2.21787 11.797 3.0702 12.6785C3.92253 13.56 5.00047 14.0005 6.30404 14Z" fill="white"/>
</svg>
