<svg width="22" height="18" viewBox="0 0 22 18" fill="none" xmlns="http://www.w3.org/2000/svg">
<path d="M14.3872 7.41788L10.6365 15.6315C10.6363 15.6319 10.6361 15.6323 10.6359 15.6328C10.5599 15.7975 10.5196 15.9762 10.5191 16.1582C10.5186 16.3408 10.5581 16.5202 10.6336 16.6857C10.7091 16.851 10.8183 16.9977 10.9523 17.1188C11.0863 17.2399 11.2427 17.3336 11.4114 17.3965L11.5862 16.9281L11.4114 17.3965C11.5801 17.4595 11.7595 17.4912 11.9395 17.4908C12.1195 17.4904 12.2987 17.4579 12.4672 17.3942C12.6356 17.3305 12.7916 17.2361 12.925 17.1144C13.058 16.9929 13.1663 16.8461 13.2409 16.681C13.2411 16.6805 13.2413 16.6801 13.2415 16.6796L13.871 15.3014H17.5084L18.1389 16.6819C18.2524 16.9305 18.441 17.1348 18.6728 17.275C18.9042 17.415 19.1717 17.4873 19.4417 17.4873H19.442C19.6663 17.4871 19.8891 17.4371 20.0913 17.3394C20.2935 17.2416 20.4714 17.0977 20.6056 16.9161C20.7308 16.7469 20.8138 16.5504 20.8447 16.3415H21.0672L20.744 15.6339L16.9922 7.41788L16.9922 7.41787C16.8787 7.16935 16.6901 6.96516 16.4584 6.82502C16.2271 6.6851 15.9597 6.61285 15.6897 6.61285C15.4197 6.61285 15.1523 6.68509 14.921 6.82502C14.6893 6.96516 14.5007 7.16935 14.3872 7.41787L14.3872 7.41788ZM16.2947 12.6431H15.0851L15.6899 11.3186L16.2947 12.6431Z" stroke="#292826"/>
<path d="M10.9873 13.251C10.9964 13.2497 11.0055 13.2483 11.0145 13.2468V13.8482L11.9048 12.7364C12.1336 12.4507 12.2339 12.0846 12.1698 11.7205L12.0145 11.7479L12.1698 11.7205C12.1431 11.5693 12.0897 11.4272 12.0145 11.2985V10.999L11.9037 11.1375C11.8148 11.0269 11.7082 10.9302 11.5881 10.8509C11.5843 10.8483 11.5772 10.8434 11.5664 10.8359C11.5499 10.8243 11.5245 10.8063 11.491 10.7817C11.4239 10.7326 11.3241 10.6572 11.1966 10.5545C11.0073 10.4019 10.7571 10.1892 10.4627 9.91296C11.8423 8.11315 12.6887 6.17708 13.1107 5.05012H14.1058C14.4662 5.05012 14.8208 4.92112 15.0896 4.67817C15.36 4.43371 15.5229 4.0907 15.5229 3.72099C15.5229 3.35128 15.36 3.00827 15.0896 2.76381C14.8208 2.52086 14.4662 2.39185 14.1058 2.39185H9.77015V2.13809C9.77015 1.76838 9.60725 1.42538 9.33685 1.18092C9.06812 0.937962 8.71352 0.80896 8.35305 0.80896C7.99257 0.80896 7.63797 0.937962 7.36924 1.18091C7.09884 1.42538 6.93595 1.76838 6.93595 2.13809V2.39185H2.60033C2.23985 2.39185 1.88525 2.52086 1.61652 2.76381C1.34612 3.00827 1.18323 3.35128 1.18323 3.72099C1.18323 4.0907 1.34612 4.43371 1.61652 4.67817C1.88525 4.92112 2.23985 5.05012 2.60033 5.05012H5.75259C5.63524 5.06472 5.51941 5.09314 5.40792 5.13537C5.07253 5.26239 4.7905 5.50993 4.63857 5.83986C4.48546 6.17233 4.4834 6.54956 4.63316 6.88364L4.63312 6.88366L4.63602 6.88989C4.67583 6.97553 5.23722 8.15856 6.72713 9.94677C5.24414 11.3914 3.84883 12.2823 3.2727 12.5696C2.94858 12.7297 2.69223 13.0079 2.57873 13.3567L3.04543 13.5086L2.57873 13.3567C2.46436 13.7083 2.51075 14.0857 2.70079 14.4007C2.88926 14.7132 3.19795 14.9313 3.54678 15.0241C3.89523 15.1168 4.27066 15.0814 4.59438 14.9218L4.59466 14.9217C4.71082 14.8643 6.50345 13.9635 8.61662 11.9406C9.3769 12.6368 9.89137 12.9829 9.9601 13.0274C10.11 13.1254 10.2773 13.1945 10.4522 13.2323C10.6278 13.2704 10.8094 13.2767 10.9873 13.251L10.916 12.7561L10.9873 13.251ZM6.12615 5.05012H10.0748C9.72327 5.85359 9.22211 6.84542 8.55852 7.81133C7.64477 6.64422 7.27023 5.89904 7.23842 5.83574C7.23762 5.83415 7.23703 5.83298 7.23666 5.83226L7.23669 5.83225L7.23206 5.82256C7.07531 5.49507 6.78996 5.25143 6.45303 5.12876C6.347 5.09015 6.23724 5.06394 6.12615 5.05012Z" stroke="#292826"/>
</svg>
