<svg width="16" height="13" viewBox="0 0 16 13" fill="none" xmlns="http://www.w3.org/2000/svg">
<path d="M6.24446 3.35574V1.99657C6.24446 1.6361 6.40285 1.29039 6.68479 1.0355C6.96672 0.780605 7.34911 0.637408 7.74783 0.637408H13.7613C14.16 0.637408 14.5424 0.780605 14.8243 1.0355C15.1063 1.29039 15.2646 1.6361 15.2646 1.99657L15.2646 10.1516C15.2646 10.512 15.1063 10.8578 14.8243 11.1127C14.5424 11.3675 14.16 11.5107 13.7613 11.5107H8.0485C7.21827 11.5107 6.24446 10.9022 6.24446 10.1516V8.79241" stroke="#292826" stroke-linecap="round" stroke-linejoin="round"/>
<path d="M3.83911 3.35581L0.832383 6.07415L3.83911 8.79248" stroke="#292826" stroke-linecap="round" stroke-linejoin="round"/>
<path d="M11.0553 6.0741L1.43377 6.0741" stroke="#292826" stroke-linecap="round" stroke-linejoin="round"/>
</svg>
