<svg width="25" height="25" viewBox="0 0 25 25" fill="none" xmlns="http://www.w3.org/2000/svg">
<path d="M23.709 17.7762C22.0325 16.0385 20.8488 15.1538 20.8488 10.3631C20.8488 5.97596 18.2035 4.41296 16.0262 3.65385C15.737 3.55322 15.4647 3.32211 15.3766 3.07055C14.9947 1.96976 13.924 1 12.5008 1C11.0776 1 10.0062 1.97031 9.62822 3.07166C9.54008 3.32598 9.26784 3.55322 8.97862 3.65385C6.79874 4.41406 4.15598 5.97154 4.15598 10.3631C4.15272 15.1538 2.96909 16.0385 1.29256 17.7762C0.597919 18.496 1.20638 19.5769 2.42134 19.5769H22.5867C23.7952 19.5769 24.3997 18.4927 23.709 17.7762Z" stroke="#292826" stroke-linecap="round" stroke-linejoin="round"/>
<path d="M16.6791 19.5769V20.4615C16.6791 21.4 16.2388 22.3 15.4553 22.9636C14.6717 23.6272 13.6089 24 12.5008 24C11.3926 24 10.3299 23.6272 9.5463 22.9636C8.76272 22.3 8.32251 21.4 8.32251 20.4615V19.5769" stroke="#292826" stroke-linecap="round" stroke-linejoin="round"/>
</svg>
