<svg width="16" height="17" viewBox="0 0 16 17" fill="none" xmlns="http://www.w3.org/2000/svg">
<path d="M14.8752 12.2091C13.8495 11.0741 13.1253 10.4963 13.1253 7.36717C13.1253 4.50167 11.5068 3.48079 10.1747 2.98497C9.99777 2.91924 9.83121 2.76829 9.77728 2.60398C9.54361 1.88499 8.88855 1.25159 8.01778 1.25159C7.14702 1.25159 6.49155 1.88535 6.26028 2.60471C6.20635 2.77082 6.03979 2.91924 5.86284 2.98497C4.52913 3.48151 2.91223 4.49879 2.91223 7.36717C2.91023 10.4963 2.18606 11.0741 1.16032 12.2091C0.73532 12.6793 1.10759 13.3852 1.85094 13.3852H14.1886C14.928 13.3852 15.2978 12.6771 14.8752 12.2091Z" stroke="#292826" stroke-linecap="round" stroke-linejoin="round"/>
<path d="M10.5742 13.3854V13.9632C10.5742 14.5761 10.3048 15.164 9.82542 15.5974C9.34601 16.0308 8.69579 16.2743 8.0178 16.2743C7.3398 16.2743 6.68958 16.0308 6.21017 15.5974C5.73076 15.164 5.46143 14.5761 5.46143 13.9632V13.3854" stroke="#292826" stroke-linecap="round" stroke-linejoin="round"/>
</svg>
