<svg width="18" height="17" viewBox="0 0 18 17" fill="none" xmlns="http://www.w3.org/2000/svg">
<path d="M12.1643 1.68315C11.469 1.00443 10.4835 0.616577 9.36845 0.616577C8.24483 0.616577 7.2562 1.00309 6.56574 1.67598L12.1643 1.68315ZM12.1643 1.68315C12.8648 2.36687 13.2057 3.28237 13.1245 4.27499L13.1245 4.27507M12.1643 1.68315L13.1245 4.27507M13.1245 4.27507C12.9588 6.30472 11.2506 7.92736 9.36845 7.92736C7.48584 7.92736 5.77517 6.30405 5.61204 4.27515L13.1245 4.27507ZM5.61203 4.27496C5.53163 3.26903 5.8722 2.35201 6.5657 1.67601L5.61203 4.27496Z" stroke="#292826"/>
<path d="M16.5969 16.2382L16.5969 16.2382C16.7193 16.2396 16.8391 16.2162 16.9472 16.1712C17.0552 16.1263 17.1466 16.0618 17.2168 15.9858L17.2173 15.9853C17.371 15.8191 17.438 15.5898 17.3886 15.3429L17.3886 15.3426C17.0732 13.7608 16.0891 12.4139 14.4947 11.4528L16.5969 16.2382ZM16.5969 16.2382H16.5911M16.5969 16.2382H16.5911M16.5911 16.2382H2.14578V16.2381M16.5911 16.2382L2.14578 16.2381M2.14578 16.2381L2.13991 16.2382M2.14578 16.2381L2.13991 16.2382M2.13991 16.2382C2.01755 16.2396 1.89772 16.2163 1.78964 16.1714C1.68161 16.1264 1.59021 16.062 1.52 15.986L1.51966 15.9856M2.13991 16.2382L1.51966 15.9856M1.51966 15.9856C1.36594 15.8195 1.29892 15.5902 1.34831 15.3432L1.34836 15.3429M1.51966 15.9856L1.34836 15.3429M1.34836 15.3429C1.66376 13.7612 2.64778 12.4142 4.24231 11.4528L1.34836 15.3429ZM4.24246 11.4527C5.66525 10.5955 7.48593 10.1146 9.36846 10.1146C11.2509 10.1146 13.0716 10.5959 14.4945 11.4527L4.24246 11.4527Z" stroke="#292826"/>
</svg>
