<svg width="14" height="16" viewBox="0 0 14 16" fill="none" xmlns="http://www.w3.org/2000/svg">
<path d="M9.89756 6.28176V3.19766C9.89756 2.50886 9.59491 1.84827 9.05618 1.36121C8.51745 0.874151 7.78677 0.600525 7.02489 0.600525C6.26301 0.600525 5.53234 0.874151 4.99361 1.36121C4.45488 1.84827 4.15222 2.50886 4.15222 3.19766V6.28176" stroke="#292826" stroke-linecap="round" stroke-linejoin="round"/>
<path d="M11.0466 6.28174H3.00314C2.05122 6.28174 1.27954 6.9794 1.27954 7.84002V13.5537C1.27954 14.4143 2.05122 15.112 3.00314 15.112H11.0466C11.9985 15.112 12.7702 14.4143 12.7702 13.5537V7.84002C12.7702 6.9794 11.9985 6.28174 11.0466 6.28174Z" stroke="#292826" stroke-linecap="round" stroke-linejoin="round"/>
</svg>
