<svg width="18" height="7" viewBox="0 0 18 7" fill="none" xmlns="http://www.w3.org/2000/svg">
<path d="M2.15332 0.575195C2.98242 0.575195 3.5874 0.745117 3.96826 1.08496C4.34912 1.4248 4.53955 1.90088 4.53955 2.51318C4.53955 2.7915 4.49561 3.05664 4.40771 3.30859C4.32275 3.55762 4.18213 3.77881 3.98584 3.97217C3.78955 4.1626 3.53027 4.31348 3.20801 4.4248C2.88867 4.53613 2.49463 4.5918 2.02588 4.5918H1.34033V7H0.285645V0.575195H2.15332ZM2.08301 1.44971H1.34033V3.71289H1.91602C2.24707 3.71289 2.52832 3.6748 2.75977 3.59863C2.99121 3.51953 3.16699 3.39502 3.28711 3.2251C3.40723 3.05518 3.46729 2.83105 3.46729 2.55273C3.46729 2.18066 3.35449 1.90381 3.12891 1.72217C2.90625 1.54053 2.55762 1.44971 2.08301 1.44971ZM7.69043 0.575195C8.51953 0.575195 9.12451 0.745117 9.50537 1.08496C9.88623 1.4248 10.0767 1.90088 10.0767 2.51318C10.0767 2.7915 10.0327 3.05664 9.94482 3.30859C9.85986 3.55762 9.71924 3.77881 9.52295 3.97217C9.32666 4.1626 9.06738 4.31348 8.74512 4.4248C8.42578 4.53613 8.03174 4.5918 7.56299 4.5918H6.87744V7H5.82275V0.575195H7.69043ZM7.62012 1.44971H6.87744V3.71289H7.45312C7.78418 3.71289 8.06543 3.6748 8.29688 3.59863C8.52832 3.51953 8.7041 3.39502 8.82422 3.2251C8.94434 3.05518 9.00439 2.83105 9.00439 2.55273C9.00439 2.18066 8.8916 1.90381 8.66602 1.72217C8.44336 1.54053 8.09473 1.44971 7.62012 1.44971ZM14.1328 7L12.2827 1.63428H12.2432C12.252 1.75439 12.2622 1.91846 12.2739 2.12646C12.2856 2.33447 12.2959 2.55713 12.3047 2.79443C12.3135 3.03174 12.3179 3.25879 12.3179 3.47559V7H11.3599V0.575195H12.8408L14.6206 5.70361H14.647L16.4883 0.575195H17.9648V7H16.9585V3.42285C16.9585 3.22656 16.9614 3.01416 16.9673 2.78564C16.9761 2.55713 16.9849 2.34033 16.9937 2.13525C17.0054 1.93018 17.0142 1.76611 17.02 1.64307H16.9849L15.0645 7H14.1328Z" fill="white"/>
</svg>
