<svg width="14" height="13" viewBox="0 0 14 13" fill="none" xmlns="http://www.w3.org/2000/svg">
<path d="M10.6005 1.75C11.7662 1.75 12.8567 2.1025 13.7516 2.71L12.8792 4.8775C12.2568 4.3104 11.4435 3.9972 10.6005 4C8.72036 4 7.21625 5.5 7.21625 7.375C7.21625 9.25 8.72036 10.75 10.6005 10.75C11.3751 10.75 12.082 10.495 12.6536 10.06L13.5109 12.1975C12.6324 12.7249 11.6259 13.0024 10.6005 13C9.10456 13 7.6699 12.4074 6.61212 11.3525C5.55434 10.2976 4.96008 8.86684 4.96008 7.375C4.96008 5.88316 5.55434 4.45242 6.61212 3.39752C7.6699 2.34263 9.10456 1.75 10.6005 1.75ZM2.70392 0.25C3.30229 0.25 3.87615 0.487053 4.29927 0.90901C4.72238 1.33097 4.96008 1.90326 4.96008 2.5C4.96008 3.09674 4.72238 3.66903 4.29927 4.09099C3.87615 4.51295 3.30229 4.75 2.70392 4.75C2.10555 4.75 1.53168 4.51295 1.10857 4.09099C0.685456 3.66903 0.447754 3.09674 0.447754 2.5C0.447754 1.90326 0.685456 1.33097 1.10857 0.90901C1.53168 0.487053 2.10555 0.25 2.70392 0.25ZM2.70392 1.75C2.50446 1.75 2.31317 1.82902 2.17214 1.96967C2.0311 2.11032 1.95186 2.30109 1.95186 2.5C1.95186 2.69891 2.0311 2.88968 2.17214 3.03033C2.31317 3.17098 2.50446 3.25 2.70392 3.25C2.90338 3.25 3.09466 3.17098 3.2357 3.03033C3.37674 2.88968 3.45597 2.69891 3.45597 2.5C3.45597 2.30109 3.37674 2.11032 3.2357 1.96967C3.09466 1.82902 2.90338 1.75 2.70392 1.75Z" fill="white"/>
</svg>
