<svg width="15" height="16" viewBox="0 0 15 16" fill="none" xmlns="http://www.w3.org/2000/svg">
<path d="M13.7702 6.82895V13.7836C13.7702 14.2382 13.5704 14.6742 13.2149 14.9957C12.8593 15.3171 12.3771 15.4977 11.8742 15.4977H3.0264C2.52355 15.4977 2.04131 15.3171 1.68575 14.9957C1.33018 14.6742 1.13043 14.2382 1.13043 13.7836V2.3562C1.13043 1.90159 1.33018 1.4656 1.68575 1.14414C2.04131 0.822683 2.52355 0.64209 3.0264 0.64209H6.92694C7.26206 0.642136 7.58343 0.762492 7.82042 0.976698L13.4001 6.02118C13.637 6.23543 13.7701 6.52598 13.7702 6.82895Z" stroke="#292826" stroke-linejoin="round"/>
<path d="M7.45038 0.927856V5.21313C7.45038 5.5162 7.58355 5.80686 7.82059 6.02117C8.05763 6.23547 8.37913 6.35587 8.71435 6.35587H13.4543" stroke="#292826" stroke-linecap="round" stroke-linejoin="round"/>
<path d="M4.29041 9.21277H10.6103" stroke="#292826" stroke-linecap="round" stroke-linejoin="round"/>
<path d="M4.29041 12.0695H10.6103" stroke="#292826" stroke-linecap="round" stroke-linejoin="round"/>
</svg>
