<svg width="370" height="347" viewBox="0 0 370 347" fill="none" xmlns="http://www.w3.org/2000/svg">
<g clip-path="url(#clip0_909_17)">
<path d="M71.1794 347C110.491 347 142.359 344.67 142.359 341.795C142.359 338.92 110.491 336.59 71.1794 336.59C31.8681 336.59 0 338.92 0 341.795C0 344.67 31.8681 347 71.1794 347Z" fill="#E6E6E6"/>
<path d="M277.925 210.411L266.122 212.604L265.521 212.716L249.813 215.634L178.111 228.962C175.045 225.924 172.151 222.799 169.465 219.6L251.519 212.65L265.711 211.446L266.307 211.397L277.925 210.411Z" fill="#E6E6E6"/>
<path d="M225.861 127.552L163.519 139.14C165.328 136.934 167.217 134.673 169.186 132.355L225.861 127.552Z" fill="#E6E6E6"/>
<path d="M370 200.534C368.823 203.317 367.558 206.04 366.203 208.705L312.039 198.638L282.239 193.097L311.553 195.583L370 200.534Z" fill="#E6E6E6"/>
<path d="M344.558 239.082C324.621 259.546 297.982 272.041 268.72 272.041C244.785 272.041 217.274 260.292 194.614 243.213C196.406 236.555 198.902 231.159 202.374 228.426C202.461 228.356 202.55 228.286 202.639 228.224C204.122 227.132 205.759 226.538 207.425 226.489C227.848 225.664 225.547 258.643 251.148 213.297C267.069 185.096 285.104 175.392 297.433 178.529C297.66 178.587 297.884 178.649 298.109 178.715C305.254 180.842 310.365 187.396 311.841 197.22C315.868 224.015 304.074 245.451 325.648 238.856C331.89 236.994 338.338 237.071 344.558 239.082Z" fill="#4BB0FF"/>
<path d="M284.077 270.947C274.044 262.931 267.798 251.988 265.513 238.42C263.816 228.347 264.304 217.012 266.962 204.729C268.933 195.674 271.888 187.12 275.718 179.383C296.037 138.165 297.87 111.308 295.831 96.0348C293.595 79.2886 286.33 72.3337 286.257 72.2655L286.57 71.5742C286.645 71.6441 294.102 78.7606 296.392 95.8466C297.712 105.697 297.091 116.929 294.546 129.23C291.378 144.539 285.202 161.574 276.188 179.859C272.393 187.525 269.465 196.001 267.512 204.973C263.151 225.118 262.535 252.792 284.357 270.227L284.077 270.947Z" fill="#3F3D56"/>
<path d="M266.328 192.976C258.419 186.657 258.639 176.643 260.217 169.354C260.916 166.14 261.965 163.104 263.324 160.357C270.443 145.917 271.086 136.537 270.372 131.211C269.597 125.427 267.11 123.052 267.085 123.029L267.398 122.337C267.509 122.44 270.116 124.93 270.937 131.055C272.006 139.031 269.603 149.05 263.794 160.833C262.47 163.509 261.448 166.467 260.766 169.598C259.251 176.596 259.036 186.206 266.608 192.256L266.328 192.976Z" fill="#3F3D56"/>
<path d="M301.915 104.758L301.635 104.038C309.208 97.9875 308.992 88.3768 307.478 81.3801C306.796 78.2483 305.774 75.2901 304.449 72.6146C298.641 60.8315 296.238 50.8126 297.307 42.8366C298.128 36.7113 300.735 34.2218 300.845 34.1189L301.159 34.8097C301.134 34.8335 298.634 37.2392 297.867 43.0246C297.161 48.3481 297.811 57.7204 304.919 72.1388C306.279 74.885 307.327 77.9213 308.027 81.1357C309.605 88.4239 309.825 98.4384 301.915 104.758Z" fill="#3F3D56"/>
<path d="M318.803 63.7391C317.553 66.4866 315.592 68.4099 313.353 69.086C311.113 69.762 308.778 69.1353 306.861 67.3439C304.944 65.5524 303.602 62.7428 303.13 59.5333C302.659 56.3238 303.096 52.9772 304.346 50.2297L304.348 50.2243C306.952 44.5039 320.063 38.3379 320.063 38.3379C320.063 38.3379 321.407 58.0187 318.803 63.7391Z" fill="#4BB0FF"/>
<path d="M315.639 25.4013C314.389 28.1488 312.428 30.0721 310.189 30.7481C307.949 31.4241 305.614 30.7974 303.697 29.006C301.78 27.2145 300.438 24.405 299.966 21.1954C299.494 17.9859 299.932 14.6393 301.182 11.8918L301.184 11.8864C303.788 6.16602 316.899 0 316.899 0C316.899 0 318.243 19.6809 315.639 25.4013Z" fill="#4BB0FF"/>
<path d="M315.229 141.453C314.677 141.267 301.65 136.926 297.306 139.89C295.478 141.138 294.001 143.24 293.117 145.851C292.233 148.461 291.996 151.425 292.444 154.255C292.891 157.085 293.998 159.612 295.581 161.421C297.164 163.23 299.13 164.213 301.155 164.208C301.803 164.209 302.449 164.106 303.082 163.903C303.735 163.694 304.37 163.38 304.975 162.967C309.318 159.999 315.175 142.768 315.422 142.034L315.58 141.572L315.229 141.453ZM304.727 162.221C303.738 162.896 302.666 163.285 301.573 163.367C300.479 163.448 299.384 163.22 298.352 162.695C297.32 162.17 296.369 161.359 295.556 160.308C294.742 159.257 294.081 157.987 293.61 156.569C293.139 155.152 292.867 153.616 292.81 152.048C292.754 150.48 292.913 148.912 293.279 147.432C293.645 145.953 294.211 144.591 294.945 143.425C295.678 142.259 296.565 141.311 297.554 140.636C298.566 139.944 300.114 139.684 301.88 139.684C306.712 139.684 313.173 141.642 314.743 142.141C313.762 144.961 308.507 159.64 304.727 162.221Z" fill="#3F3D56"/>
<path d="M276.025 71.4186C273.804 71.4237 271.662 70.2355 270.021 68.0883C266.466 63.4422 264.356 44.514 264.267 43.7104L264.212 43.2024L264.57 43.235C265.136 43.2867 278.482 44.556 282.038 49.2022C283.368 50.9384 284.3 53.2108 284.712 55.7206C285.123 58.2304 284.996 60.86 284.345 63.2638C283.695 65.6676 282.552 67.733 281.067 69.1885C279.582 70.644 277.824 71.4214 276.025 71.4186ZM264.895 44.0953C265.263 47.1991 267.316 63.4374 270.409 67.4792C272.044 69.6141 274.204 70.731 276.413 70.5844C278.623 70.4377 280.701 69.0395 282.191 66.6971C283.682 64.3548 284.462 61.2601 284.36 58.0936C284.259 54.927 283.284 51.9479 281.65 49.8113C278.557 45.7698 267.086 44.3348 264.895 44.0953Z" fill="#3F3D56"/>
<path d="M264.01 101.036C264.847 102.131 265.526 103.45 266.007 104.921C266.489 106.391 266.763 107.983 266.816 109.605C266.868 111.227 266.697 112.848 266.312 114.376C265.927 115.903 265.336 117.307 264.572 118.507C263.808 119.707 262.887 120.68 261.862 121.37C260.836 122.06 259.725 122.454 258.593 122.529C257.461 122.604 256.33 122.358 255.264 121.806C254.198 121.255 253.219 120.407 252.381 119.313C248.86 114.711 246.718 95.176 246.718 95.176C246.718 95.176 260.488 96.4343 264.01 101.036Z" fill="#4BB0FF"/>
<path d="M290.457 101.49C290.219 99.9176 289.613 98.5085 288.74 97.4958C287.867 96.4832 286.78 95.9277 285.656 95.9211C285.302 95.923 284.95 95.9783 284.604 96.086C282.032 96.8858 277.461 104.912 277.269 105.25L277.041 105.65L277.364 105.881C277.617 106.062 283.122 109.97 286.005 109.97C286.234 109.974 286.464 109.942 286.689 109.875C287.964 109.479 289.077 108.373 289.784 106.8C290.491 105.228 290.733 103.318 290.457 101.49ZM289.301 106.355C288.994 107.045 288.594 107.641 288.124 108.108C287.654 108.574 287.124 108.902 286.565 109.071C284.5 109.715 279.305 106.297 277.948 105.37C278.914 103.721 282.659 97.533 284.727 96.8899C285.568 96.6291 286.443 96.7315 287.243 97.184C288.043 97.6365 288.731 98.4189 289.221 99.4321C289.711 100.445 289.98 101.644 289.994 102.876C290.008 104.108 289.767 105.319 289.301 106.355Z" fill="#3F3D56"/>
<path d="M67.2496 203.458L82.2833 181.912C82.7728 181.211 83.3814 180.705 84.0492 180.443C84.717 180.182 85.4208 180.174 86.0911 180.422C86.7615 180.669 87.3752 181.163 87.8718 181.854C88.3684 182.545 88.7306 183.41 88.9227 184.363C89.1203 185.343 89.1309 186.382 88.9534 187.37C88.7758 188.358 88.4166 189.259 87.9132 189.981L78.3153 203.736L91.7106 219.038L91.7037 219.053C91.7708 219.048 91.8368 219.038 91.9047 219.038C92.7103 219.038 93.4979 219.38 94.168 220.02C94.8382 220.661 95.3609 221.572 95.6701 222.638C95.9793 223.704 96.0613 224.878 95.9056 226.01C95.7498 227.143 95.3634 228.184 94.7952 229.002C94.2269 229.821 93.5022 230.379 92.7125 230.608C91.9229 230.836 91.1037 230.725 90.3584 230.286C89.6131 229.848 88.9751 229.103 88.5249 228.146C88.0747 227.189 87.8325 226.062 87.8288 224.907L67.2496 203.458Z" fill="#A0616A"/>
<path d="M111.647 336.53L116.107 334.144L111.807 308.358L105.226 311.879L111.647 336.53Z" fill="#A0616A"/>
<path d="M126.253 335.478L112.238 342.976L110.216 335.216L119.008 330.512C120.393 329.77 121.927 329.848 123.273 330.728C124.618 331.608 125.664 333.217 126.181 335.203L126.253 335.478Z" fill="#2F2E41"/>
<path d="M71.5278 334.48L76.2879 334.48L78.5527 308.167L71.527 308.167L71.5278 334.48Z" fill="#A0616A"/>
<path d="M85.4684 340.814L70.5081 340.815L70.5079 332.531L79.8927 332.53C81.3714 332.53 82.7896 333.372 83.8352 334.87C84.8809 336.369 85.4683 338.401 85.4684 340.52L85.4684 340.814Z" fill="#2F2E41"/>
<path d="M83.5569 211.248C83.5569 211.248 95.205 208.466 99.0877 215.143L115.589 324.484L106.271 326.153C106.271 326.153 103.165 269.396 87.6337 254.372C87.6337 254.372 76.3739 304.452 78.3153 327.266L70.1616 326.153C70.1616 326.153 67.6379 230.167 83.5569 211.248Z" fill="#2F2E41"/>
<path d="M107.76 250.714L109.096 248.201L108.877 247.961L109.778 246.267C109.988 245.871 110.143 245.419 110.231 244.937C110.32 244.456 110.342 243.954 110.296 243.46C110.249 242.966 110.135 242.49 109.96 242.06C109.785 241.629 109.553 241.252 109.277 240.95L106.035 237.41C105.759 237.108 105.444 236.887 105.108 236.76C104.771 236.632 104.421 236.601 104.077 236.668C103.732 236.735 103.4 236.898 103.1 237.148C102.799 237.399 102.536 237.732 102.325 238.128L94.6773 252.511C94.4666 252.907 94.3124 253.359 94.2236 253.841C94.1347 254.323 94.1129 254.825 94.1594 255.318C94.206 255.812 94.3199 256.288 94.4947 256.718C94.6695 257.149 94.9018 257.526 95.1783 257.828L98.4195 261.368C98.9779 261.978 99.6825 262.245 100.378 262.11C101.074 261.976 101.704 261.45 102.13 260.65L105.703 253.93L105.922 254.169L107.259 251.656L107.039 251.417L107.54 250.474L107.76 250.714Z" fill="#E6E6E6"/>
<path d="M105.151 245.867C105.911 245.867 106.528 244.983 106.528 243.892C106.528 242.801 105.911 241.917 105.151 241.917C104.39 241.917 103.773 242.801 103.773 243.892C103.773 244.983 104.39 245.867 105.151 245.867Z" fill="white"/>
<path d="M86.3767 167.886C91.4569 167.886 95.5753 161.984 95.5753 154.703C95.5753 147.423 91.4569 141.521 86.3767 141.521C81.2964 141.521 77.1781 147.423 77.1781 154.703C77.1781 161.984 81.2964 167.886 86.3767 167.886Z" fill="#A0616A"/>
<path d="M77.3446 179.531C77.3446 179.531 85.8865 165.063 92.8754 176.748C97.3722 184.267 99.7505 193.919 99.5454 203.817L99.2818 216.534L83.1686 212.917L77.3446 179.531Z" fill="#CCCCCC"/>
<path d="M89.5523 175.816C88.9451 175.827 88.347 176.028 87.7995 176.405C87.252 176.781 86.7683 177.324 86.3821 177.995C85.9959 178.667 85.7164 179.451 85.5631 180.293C85.4097 181.135 85.3863 182.015 85.4943 182.871L94.3101 252.793L94.2611 252.889C93.9094 253.576 93.6691 254.367 93.5577 255.204C93.4463 256.04 93.4666 256.902 93.617 257.727C93.7675 258.551 94.0444 259.316 94.4275 259.968C94.8106 260.619 95.2903 261.14 95.8316 261.492C96.712 262.049 97.7019 262.138 98.6243 261.745C99.5467 261.352 100.341 260.501 100.866 259.345C101.388 258.18 101.595 256.783 101.45 255.414C101.305 254.045 100.818 252.799 100.079 251.908L100.021 251.838L93.7538 181.052C93.6263 179.605 93.1347 178.275 92.3714 177.311C91.6081 176.347 90.6255 175.815 89.6081 175.815C89.5896 175.815 89.5708 175.815 89.5523 175.816Z" fill="#A0616A"/>
<path d="M87.8678 156.984L91.8198 150.311C92.8383 148.592 93.9036 146.719 94.0477 144.473C94.2056 142.011 93.1606 139.617 91.732 138.231C90.3034 136.845 88.5491 136.323 86.829 136.132C83.6388 135.777 80.2818 136.532 77.6592 139.16C75.0366 141.787 73.3208 146.531 73.9603 151.024C74.4638 154.562 76.3191 157.951 75.598 161.411C74.809 165.196 71.5732 166.358 68.9313 167.487C64.4968 169.382 60.2625 173.112 57.9385 178.847C55.6145 184.581 55.6247 192.489 58.7226 197.415C60.7286 200.605 63.7541 202.218 66.7456 202.461C69.7372 202.703 72.7148 201.694 75.5519 200.313C78.1648 199.041 80.7495 197.405 82.8066 194.769C84.8636 192.132 86.3455 188.36 86.2814 184.406C86.2202 180.639 84.8119 177.206 84.2334 173.53C83.777 170.451 83.8968 167.254 84.5805 164.263C85.2642 161.273 86.4876 158.594 88.1266 156.499" fill="#2F2E41"/>
<path d="M81.5877 135.196L84.0773 134.496C84.283 134.438 84.4947 134.439 84.7003 134.498C84.9058 134.557 85.1012 134.674 85.2753 134.842C85.4493 135.009 85.5986 135.225 85.7147 135.475C85.8307 135.725 85.9112 136.006 85.9516 136.301L89.3941 152.855L83.7708 154.437L80.3283 137.882C80.2468 137.286 80.3337 136.669 80.5698 136.165C80.806 135.661 81.1722 135.313 81.5877 135.196Z" fill="#4BB0FF"/>
<path d="M87.0655 162.249C89.5662 162.249 91.5934 159.344 91.5934 155.76C91.5934 152.176 89.5662 149.271 87.0655 149.271C84.5648 149.271 82.5376 152.176 82.5376 155.76C82.5376 159.344 84.5648 162.249 87.0655 162.249Z" fill="white"/>
<path d="M87.0655 159.365C88.4548 159.365 89.581 157.751 89.581 155.76C89.581 153.769 88.4548 152.155 87.0655 152.155C85.6762 152.155 84.55 153.769 84.55 155.76C84.55 157.751 85.6762 159.365 87.0655 159.365Z" fill="#4BB0FF"/>
</g>
<defs>
<clipPath id="clip0_909_17">
<rect width="370" height="347" fill="white"/>
</clipPath>
</defs>
</svg>
